<?xml version="1.0" encoding="UTF-8" standalone="no"?>
<!-- Created with Inkscape (http://www.inkscape.org/) -->

<svg
   width="41.55088mm"
   height="41.55088mm"
   viewBox="0 0 41.55088 41.55088"
   version="1.1"
   id="svg5"
   xml:space="preserve"
   inkscape:version="1.2.1 (9c6d41e, 2022-07-14)"
   sodipodi:docname="favicon.svg"
   xmlns:inkscape="http://www.inkscape.org/namespaces/inkscape"
   xmlns:sodipodi="http://sodipodi.sourceforge.net/DTD/sodipodi-0.dtd"
   xmlns="http://www.w3.org/2000/svg"
   xmlns:svg="http://www.w3.org/2000/svg"><sodipodi:namedview
     id="namedview7"
     pagecolor="#ffffff"
     bordercolor="#000000"
     borderopacity="0.25"
     inkscape:showpageshadow="2"
     inkscape:pageopacity="0.0"
     inkscape:pagecheckerboard="0"
     inkscape:deskcolor="#d1d1d1"
     inkscape:document-units="mm"
     showgrid="false"
     showguides="true"
     inkscape:zoom="3.7498657"
     inkscape:cx="94.003368"
     inkscape:cy="54.535287"
     inkscape:window-width="1728"
     inkscape:window-height="961"
     inkscape:window-x="0"
     inkscape:window-y="38"
     inkscape:window-maximized="0"
     inkscape:current-layer="layer1" /><defs
     id="defs2" /><g
     inkscape:label="Layer 1"
     inkscape:groupmode="layer"
     id="layer1"
     transform="translate(-19.965287,-117.84409)"><g
       id="g1879"
       transform="translate(-12.452659,69.576184)"><path
         style="fill:#dd695c;fill-opacity:1;stroke:none;stroke-width:1"
         id="path418"
         sodipodi:type="arc"
         sodipodi:cx="53.193386"
         sodipodi:cy="69.043343"
         sodipodi:rx="20.77544"
         sodipodi:ry="20.77544"
         sodipodi:start="0"
         sodipodi:end="6.2602008"
         sodipodi:open="true"
         sodipodi:arc-type="arc"
         d="M 73.968826,69.043343 A 20.77544,20.77544 0 0 1 53.312764,89.81844 20.77544,20.77544 0 0 1 32.419318,69.282094 20.77544,20.77544 0 0 1 52.835269,48.270989 20.77544,20.77544 0 0 1 73.963339,68.565871" /><path
         id="path1699"
         style="fill:#4a4a4a;fill-opacity:1;stroke:none;stroke-width:1"
         d="m 52.993262,56.294598 c -6.388935,0.110047 -11.489604,5.359174 -11.416358,11.748637 0.07055,6.013291 4.718541,10.978726 10.714078,11.445815 0,0 0.393393,0.04711 0.584079,0.09827 0.183417,0.04921 0.384839,0.08145 0.533681,0.199383 0.189548,0.150192 0.40256,0.60359 0.40256,0.60359 l 0.30179,3.52019 c 2.678868,-2.807272 5.330212,-5.685895 7.59747,-8.101314 1.992463,-2.147974 3.099759,-4.969464 3.10007,-7.899259 l -0.0031,-0.267168 C 64.660494,61.254656 59.382089,56.184509 52.993262,56.294598 Z"
         inkscape:transform-center-x="-0.10058177"
         inkscape:transform-center-y="2.2127989"
         sodipodi:nodetypes="cccaacccccc" /></g></g></svg>
